<?xml version="1.0" encoding="UTF-8" standalone="no"?>
<!DOCTYPE svg PUBLIC "-//W3C//DTD SVG 1.1//EN"
 "http://www.w3.org/Graphics/SVG/1.1/DTD/svg11.dtd">
<!-- Generated by graphviz version 2.43.0 (0)
 -->
<!-- Title: %3 Pages: 1 -->
<svg width="259pt" height="144pt"
 viewBox="0.00 0.00 259.00 144.00" xmlns="http://www.w3.org/2000/svg" xmlns:xlink="http://www.w3.org/1999/xlink">
<g id="graph0" class="graph" transform="scale(1 1) rotate(0) translate(4 140)">
<title>%3</title>
<polygon fill="white" stroke="transparent" points="-4,4 -4,-140 255,-140 255,4 -4,4"/>
<!-- Pays -->
<g id="node1" class="node">
<title>Pays</title>
<polygon fill="#d0d0d0" stroke="transparent" points="8,-4 8,-132 81,-132 81,-4 8,-4"/>
<polygon fill="none" stroke="black" points="8.5,-104 8.5,-132 81.5,-132 81.5,-104 8.5,-104"/>
<text text-anchor="start" x="26" y="-115.2" font-family="Helvetica,sans-Serif" font-weight="bold" font-size="16.00">Pays</text>
<polygon fill="#ffffff" stroke="transparent" points="8.5,-79 8.5,-104 81.5,-104 81.5,-79 8.5,-79"/>
<polygon fill="none" stroke="black" points="8.5,-79 8.5,-104 81.5,-104 81.5,-79 8.5,-79"/>
<text text-anchor="start" x="13.5" y="-88.8" font-family="Helvetica bold" text-decoration="underline" font-size="14.00">nom</text>
<polygon fill="#ffffff" stroke="transparent" points="8.5,-54 8.5,-79 81.5,-79 81.5,-54 8.5,-54"/>
<polygon fill="none" stroke="black" points="8.5,-54 8.5,-79 81.5,-79 81.5,-54 8.5,-54"/>
<text text-anchor="start" x="13.5" y="-62.8" font-family="Helvetica,sans-Serif" font-size="14.00">region</text>
<polygon fill="#ffffff" stroke="transparent" points="8.5,-29 8.5,-54 81.5,-54 81.5,-29 8.5,-29"/>
<polygon fill="none" stroke="black" points="8.5,-29 8.5,-54 81.5,-54 81.5,-29 8.5,-29"/>
<text text-anchor="start" x="13.5" y="-37.8" font-family="Helvetica,sans-Serif" font-size="14.00">population</text>
<polygon fill="#ffffff" stroke="transparent" points="8.5,-4 8.5,-29 81.5,-29 81.5,-4 8.5,-4"/>
<polygon fill="none" stroke="black" points="8.5,-4 8.5,-29 81.5,-29 81.5,-4 8.5,-4"/>
<text text-anchor="start" x="13.5" y="-12.8" font-family="Helvetica,sans-Serif" font-size="14.00">surface</text>
</g>
<!-- Capitale -->
<g id="node2" class="node">
<title>Capitale</title>
<polygon fill="#d0d0d0" stroke="transparent" points="170,-4 170,-132 243,-132 243,-4 170,-4"/>
<polygon fill="none" stroke="black" points="170.5,-104 170.5,-132 243.5,-132 243.5,-104 170.5,-104"/>
<text text-anchor="start" x="175.5" y="-115.2" font-family="Helvetica,sans-Serif" font-weight="bold" font-size="16.00">Capitale</text>
<polygon fill="#ffffff" stroke="transparent" points="170.5,-79 170.5,-104 243.5,-104 243.5,-79 170.5,-79"/>
<polygon fill="none" stroke="black" points="170.5,-79 170.5,-104 243.5,-104 243.5,-79 170.5,-79"/>
<text text-anchor="start" x="175.5" y="-88.8" font-family="Helvetica bold" text-decoration="underline" font-size="14.00">nom</text>
<polygon fill="#ffffff" stroke="transparent" points="170.5,-54 170.5,-79 243.5,-79 243.5,-54 170.5,-54"/>
<polygon fill="none" stroke="black" points="170.5,-54 170.5,-79 243.5,-79 243.5,-54 170.5,-54"/>
<text text-anchor="start" x="175.5" y="-62.8" font-family="Helvetica,sans-Serif" font-size="14.00">population</text>
<polygon fill="#ffffff" stroke="transparent" points="170.5,-29 170.5,-54 243.5,-54 243.5,-29 170.5,-29"/>
<polygon fill="none" stroke="black" points="170.5,-29 170.5,-54 243.5,-54 243.5,-29 170.5,-29"/>
<text text-anchor="start" x="175.5" y="-37.8" font-family="Helvetica,sans-Serif" font-size="14.00">longitude</text>
<polygon fill="#ffffff" stroke="transparent" points="170.5,-4 170.5,-29 243.5,-29 243.5,-4 170.5,-4"/>
<polygon fill="none" stroke="black" points="170.5,-4 170.5,-29 243.5,-29 243.5,-4 170.5,-4"/>
<text text-anchor="start" x="175.5" y="-12.8" font-family="Helvetica,sans-Serif" font-size="14.00">latitude</text>
</g>
<!-- Pays&#45;&#45;Capitale -->
<g id="edge1" class="edge">
<title>Pays&#45;&#45;Capitale</title>
<path fill="none" stroke="#7f7f7f" stroke-dasharray="5,2" d="M89.22,-68C111.8,-68 139.26,-68 161.83,-68"/>
<text text-anchor="start" x="154.83" y="-56.8" font-family="Times,serif" font-size="14.00">1</text>
<text text-anchor="start" x="89.22" y="-56.8" font-family="Times,serif" font-size="14.00">1</text>
</g>
</g>
</svg>
