P1
4 4
0110
0010
0010
1000
